<svg width="274" height="280" viewBox="0 0 274 280" fill="none" xmlns="http://www.w3.org/2000/svg">
<path fill-rule="evenodd" clip-rule="evenodd" d="M85.4313 42.9697C79.712 56.595 76.868 72.0646 75.8309 86.026H137H198.23C197.27 72.4283 194.541 57.3567 188.984 43.9602C180.147 22.6589 164.371 5.95765 137.317 5.50895C123.694 5.28301 113.014 9.3449 104.622 16.031C96.1889 22.7503 89.9425 32.2225 85.4313 42.9697ZM70.6527 108.482C70.325 103.302 70.2467 97.376 70.5269 91.026H70.0837H38.7209L6.15039 274.5H267.849L235.279 91.026H203.916H203.511C203.763 97.3998 203.643 103.336 203.269 108.504C203.17 109.881 201.973 110.917 200.596 110.817C199.218 110.718 198.183 109.52 198.282 108.143C198.649 103.077 198.761 97.2601 198.508 91.026H137H75.5317C75.2489 97.2521 75.3205 103.074 75.6427 108.166C75.7299 109.544 74.6836 110.732 73.3056 110.819C71.9276 110.906 70.7399 109.86 70.6527 108.482ZM80.821 41.0345C74.8043 55.3681 71.8638 71.5317 70.8176 86.026H70.0837H36.6256C35.4135 86.026 34.3759 86.8956 34.1641 88.089L0.705985 276.563C0.576731 277.291 0.776453 278.039 1.25146 278.606C1.72647 279.173 2.42801 279.5 3.1675 279.5H270.832C271.572 279.5 272.273 279.173 272.748 278.606C273.223 278.039 273.423 277.291 273.294 276.563L239.836 88.089C239.624 86.8956 238.586 86.026 237.374 86.026H203.916H203.242C202.273 71.8961 199.45 56.1407 193.602 42.0444C184.292 19.602 167.105 1.0023 137.4 0.50964C122.643 0.2649 110.826 4.69485 101.506 12.1205C92.2282 19.513 85.5483 29.7725 80.821 41.0345ZM107.58 155.16L103.194 159.546L129.512 185.865L103.194 212.183L107.58 216.569L133.898 190.251L160.217 216.569L164.603 212.183L138.285 185.865L164.603 159.546L160.217 155.16L133.898 181.478L107.58 155.16Z" fill="#575757"/>
</svg>
