<svg width="146" height="149" viewBox="0 0 146 149" fill="none" xmlns="http://www.w3.org/2000/svg">
<path fill-rule="evenodd" clip-rule="evenodd" d="M46.7889 23.9462C44.0166 30.5509 42.5512 38.0236 41.9412 44.9067H72.7707H103.637C103.066 38.214 101.659 30.9446 98.9693 24.4618C94.4418 13.5481 86.4934 5.22969 72.9177 5.00454C66.034 4.89037 60.6963 6.93572 56.5105 10.2708C52.2831 13.6389 49.1063 18.4255 46.7889 23.9462ZM36.7495 57.9597C36.5966 55.5444 36.5454 52.8215 36.6357 49.9067H22.163L5.48291 143.868H140.059L123.378 49.9067H108.921C108.997 52.8364 108.926 55.5679 108.751 57.9821C108.651 59.3592 107.454 60.3949 106.077 60.2953C104.7 60.1957 103.664 58.9986 103.764 57.6215C103.931 55.31 103.996 52.699 103.919 49.9067H72.7707H41.638C41.5465 52.7002 41.5923 55.3178 41.7395 57.6439C41.8267 59.0219 40.7803 60.2096 39.4023 60.2968C38.0244 60.384 36.8367 59.3376 36.7495 57.9597ZM42.1786 22.011C39.113 29.3144 37.5457 37.4799 36.9227 44.9067H20.0677C18.8556 44.9067 17.8181 45.7763 17.6062 46.9698L0.0385048 145.931C-0.090749 146.659 0.108973 147.407 0.583979 147.974C1.05898 148.54 1.76053 148.868 2.50002 148.868H143.041C143.781 148.868 144.482 148.54 144.957 147.974C145.432 147.407 145.632 146.659 145.503 145.931L127.935 46.9698C127.723 45.7763 126.686 44.9067 125.474 44.9067H108.654C108.071 37.6716 106.563 29.7193 103.588 22.5459C98.5869 10.4912 89.2271 0.274342 73.0006 0.0052235C64.9833 -0.127746 58.5087 2.28567 53.3948 6.36023C48.3224 10.4017 44.7121 15.9755 42.1786 22.011ZM57.3233 82.3939L55.0202 84.697L68.839 98.5158L55.0202 112.335L57.3233 114.638L71.1421 100.819L84.9609 114.638L87.2641 112.335L73.4453 98.5158L87.2641 84.697L84.9609 82.3939L71.1421 96.2127L57.3233 82.3939Z" fill="#575757"/>
</svg>
