<svg width="25" height="24" viewBox="0 0 25 24" fill="none" xmlns="http://www.w3.org/2000/svg">
<path d="M12 3C14.5196 3 16.9359 4.00089 18.7175 5.78249C20.4991 7.56408 21.5 9.98044 21.5 12.5C21.5 15.0196 20.4991 17.4359 18.7175 19.2175C16.9359 20.9991 14.5196 22 12 22C9.48044 22 7.06408 20.9991 5.28249 19.2175C3.50089 17.4359 2.5 15.0196 2.5 12.5C2.5 9.98044 3.50089 7.56408 5.28249 5.78249C7.06408 4.00089 9.48044 3 12 3V3ZM12 4C9.74566 4 7.58365 4.89553 5.98959 6.48959C4.39553 8.08365 3.5 10.2457 3.5 12.5C3.5 14.7543 4.39553 16.9163 5.98959 18.5104C7.58365 20.1045 9.74566 21 12 21C14.2543 21 16.4163 20.1045 18.0104 18.5104C19.6045 16.9163 20.5 14.7543 20.5 12.5C20.5 10.2457 19.6045 8.08365 18.0104 6.48959C16.4163 4.89553 14.2543 4 12 4ZM11.5 8V10H12.5V8H11.5ZM11.5 12V17H12.5V12H11.5Z" fill="#575757"/>
</svg>
