<svg width="25" height="24" viewBox="0 0 25 24" fill="none" xmlns="http://www.w3.org/2000/svg">
<path d="M18.5934 22.6668H6.40675C6.15021 22.6608 5.89738 22.6042 5.6627 22.5004C5.42803 22.3966 5.2161 22.2476 5.03903 22.0619C4.86197 21.8761 4.72324 21.6573 4.63076 21.418C4.53829 21.1786 4.49388 20.9234 4.50008 20.6668V7.48682H5.83342V20.6668C5.82705 20.7483 5.83685 20.8302 5.86226 20.9079C5.88767 20.9855 5.92818 21.0574 5.98146 21.1194C6.03474 21.1813 6.09974 21.2321 6.17273 21.2689C6.24572 21.3056 6.32525 21.3276 6.40675 21.3335H18.5934C18.6749 21.3276 18.7544 21.3056 18.8274 21.2689C18.9004 21.2321 18.9654 21.1813 19.0187 21.1194C19.072 21.0574 19.1125 20.9855 19.1379 20.9079C19.1633 20.8302 19.1731 20.7483 19.1667 20.6668V7.48682H20.5001V20.6668C20.5063 20.9234 20.4619 21.1786 20.3694 21.418C20.2769 21.6573 20.1382 21.8761 19.9611 22.0619C19.7841 22.2476 19.5721 22.3966 19.3375 22.5004C19.1028 22.6042 18.85 22.6608 18.5934 22.6668V22.6668Z" fill="#575757"/>
<path d="M21.0198 5.99984H3.83317C3.65636 5.99984 3.48679 5.9296 3.36177 5.80457C3.23674 5.67955 3.1665 5.50998 3.1665 5.33317C3.1665 5.15636 3.23674 4.98679 3.36177 4.86177C3.48679 4.73674 3.65636 4.6665 3.83317 4.6665H21.0198C21.1967 4.6665 21.3662 4.73674 21.4912 4.86177C21.6163 4.98679 21.6865 5.15636 21.6865 5.33317C21.6865 5.50998 21.6163 5.67955 21.4912 5.80457C21.3662 5.9296 21.1967 5.99984 21.0198 5.99984Z" fill="#575757"/>
<path d="M14.5 8.6665H15.8333V18.6665H14.5V8.6665Z" fill="#575757"/>
<path d="M9.1665 8.6665H10.4998V18.6665H9.1665V8.6665Z" fill="#575757"/>
<path d="M15.8332 3.90683H14.5665V2.66683H10.4332V3.90683H9.1665V2.66683C9.16608 2.32446 9.29736 1.99505 9.53317 1.74683C9.76898 1.49861 10.0912 1.35061 10.4332 1.3335H14.5665C14.9084 1.35061 15.2307 1.49861 15.4665 1.74683C15.7023 1.99505 15.8336 2.32446 15.8332 2.66683V3.90683Z" fill="#575757"/>
</svg>
