<?xml version="1.0" encoding="utf-8"?>
<!-- Generator: Adobe Illustrator 22.0.1, SVG Export Plug-In . SVG Version: 6.00 Build 0)  -->
<svg version="1.1" id="primeal" xmlns="http://www.w3.org/2000/svg" xmlns:xlink="http://www.w3.org/1999/xlink" x="0px" y="0px" fill="white"
	 viewBox="0 0 1000 1000" style="enable-background:new 0 0 1000 1000;" xml:space="preserve">
<path d="M925.1,700.1c0,15.2-6.4,27.6-17.6,34.1c-11.2,6.5-25.2,5.8-38.3-1.8l-89.3-51.6c-9.6-5.5-12.8-17.8-7.3-27.3
	c5.5-9.6,17.8-12.8,27.3-7.3l85.3,49.2l0-397.6L536.4,507.5c-8.1,4.9-16,18.9-16,28.3v428.3c0,11-9,20-20,20s-20-9-20-20V535.8
	c0-23.6,15.2-50.5,35.4-62.6l349.9-210.4L516.1,61c-8.1-4.7-23.9-4.7-32,0l-353,203.8c-8.1,4.7-16,18.4-16,27.7v332.4l261.8,151.2
	c9.6,5.5,12.8,17.8,7.3,27.3c-3.7,6.4-10.4,10-17.3,10c-3.4,0-6.8-0.9-10-2.7L115.1,671.1v29.1c0,9.3,7.9,23,16,27.7l293.4,169.4
	c9.6,5.5,12.8,17.8,7.3,27.3c-3.7,6.4-10.4,10-17.3,10c-3.4,0-6.8-0.9-10-2.7L111.1,762.5c-20.5-11.8-36-38.6-36-62.3V292.5
	c0-23.7,15.5-50.5,36-62.3l353-203.8c20.5-11.8,51.4-11.8,72,0l353,203.8c20.5,11.8,36,38.6,36,62.3L925.1,700.1z M424.5,507.7
	L190.1,372.4c-9.6-5.5-21.8-2.2-27.3,7.3c-5.5,9.6-2.2,21.8,7.3,27.3l224.3,129.6v52.8l-204.3-118c-9.6-5.5-21.8-2.2-27.3,7.3
	c-5.5,9.6-2.2,21.8,7.3,27.3l224.3,129.6v52.8l-204.3-118c-9.6-5.5-21.8-2.2-27.3,7.3c-5.5,9.6-2.2,21.8,7.3,27.3l234.3,135.3
	c3.1,1.8,6.5,2.7,10,2.7c3.5,0,6.9-0.9,10-2.7c6.2-3.6,10-10.2,10-17.3V525C434.5,517.9,430.7,511.3,424.5,507.7z M573.2,379.4
	c6.2-3.6,10-10.2,10-17.3s-3.8-13.8-10-17.3L374.9,230.5l46.3-26.7l218.4,125.8c6.2,3.6,13.8,3.6,20,0l86.3-49.8
	c6.2-3.6,10-10.2,10-17.3c0-7.1-3.8-13.8-10-17.3L517.4,113.6c-9.6-5.5-21.8-2.2-27.3,7.4s-2.2,21.8,7.4,27.3l198.3,114.2
	l-46.3,26.7L431.1,163.4c-6.2-3.6-13.8-3.6-20,0l-86.3,49.8c-6.2,3.6-10,10.2-10,17.3s3.8,13.8,10,17.3l198.3,114.2l-46.3,26.7
	L258.5,263c-9.6-5.5-21.8-2.2-27.3,7.4c-5.5,9.6-2.2,21.8,7.4,27.3l228.4,131.5c3.1,1.8,6.5,2.7,10,2.7c3.5,0,6.9-0.9,10-2.7
	L573.2,379.4z"/>
</svg>
